<?xml version="1.0" standalone="no"?>
<!DOCTYPE svg PUBLIC "-//W3C//DTD SVG 20010904//EN"
 "http://www.w3.org/TR/2001/REC-SVG-20010904/DTD/svg10.dtd">
<svg version="1.0" xmlns="http://www.w3.org/2000/svg"
 width="610.000000pt" height="610.000000pt" viewBox="0 0 610.000000 610.000000"
 preserveAspectRatio="xMidYMid meet">
<metadata>
Created by potrace 1.15, written by Peter Selinger 2001-2017
</metadata>
<g transform="translate(0.000000,610.000000) scale(0.100000,-0.100000)"
fill="#000000" stroke="none">
<path d="M605 5760 c-206 -31 -376 -152 -464 -331 -75 -153 -71 -31 -71 -1904
0 -1437 2 -1690 15 -1750 19 -90 81 -215 140 -282 56 -64 172 -143 256 -174
l64 -24 1250 -3 1250 -3 40 -72 c64 -114 176 -257 282 -356 419 -397 1011
-528 1561 -345 512 170 906 606 1023 1134 100 455 -12 943 -300 1305 -62 77
-207 217 -288 278 l-83 61 0 956 c0 1069 2 1031 -71 1180 -82 167 -249 292
-434 325 -68 12 -393 14 -2100 13 -1111 0 -2042 -4 -2070 -8z m4196 -313 c66
-32 132 -99 162 -165 22 -47 22 -49 25 -943 l2 -896 -108 33 c-60 18 -156 40
-214 48 -119 18 -329 21 -431 6 l-68 -10 -222 181 c-246 200 -288 226 -347
211 -29 -7 -442 -237 -636 -353 l-31 -19 -372 348 c-205 191 -387 355 -404
365 -40 22 -84 22 -127 -1 -45 -23 -1449 -1216 -1472 -1251 -11 -16 -18 -45
-18 -78 0 -44 5 -58 31 -88 40 -45 95 -62 147 -47 27 8 223 169 688 564 357
304 657 559 666 566 15 12 81 -46 540 -474 288 -268 533 -497 546 -509 l24
-22 -52 -79 c-101 -154 -178 -342 -222 -541 -19 -83 -22 -129 -22 -303 0 -174
3 -220 22 -304 12 -55 22 -103 22 -108 0 -5 -515 -7 -1158 -6 l-1157 3 -67 33
c-73 36 -123 86 -160 161 l-23 46 0 1710 0 1710 22 47 c41 89 134 166 227 189
17 4 954 6 2081 6 l2050 -2 56 -28z m-1071 -2073 c-108 -56 -218 -130 -299
-199 l-53 -45 -31 26 c-70 58 -188 176 -183 182 4 3 106 63 228 133 l222 127
106 -86 106 -87 -96 -51z m952 -145 c283 -56 539 -209 722 -430 284 -346 370
-792 231 -1207 -226 -675 -963 -1036 -1625 -797 -430 156 -747 533 -825 982
-19 111 -19 317 0 429 45 255 170 490 359 679 214 213 493 342 796 368 80 7
242 -4 342 -24z"/>
<path d="M989 5325 c-271 -68 -449 -297 -449 -575 0 -166 53 -293 170 -411 79
-79 168 -132 270 -160 75 -20 234 -16 315 9 251 77 415 299 415 560 0 155 -40
268 -134 384 -57 70 -176 151 -264 179 -86 27 -244 34 -323 14z m269 -306
c106 -53 165 -147 166 -264 0 -119 -60 -215 -169 -273 -42 -22 -63 -27 -130
-27 -67 0 -88 5 -131 27 -171 89 -219 289 -108 450 52 75 140 117 245 118 54
0 77 -5 127 -31z"/>
<path d="M4362 2780 c-17 -11 -162 -130 -322 -265 -303 -257 -305 -259 -303
-338 2 -98 120 -161 209 -113 16 8 99 75 184 147 l155 132 5 -539 c5 -508 6
-541 24 -567 26 -39 66 -57 125 -57 52 0 97 27 124 74 9 15 13 159 17 553 l5
532 173 -145 c124 -104 180 -144 200 -145 78 -3 123 16 152 64 25 40 26 112 2
149 -17 28 -551 484 -607 519 -39 25 -101 24 -143 -1z"/>
</g>
</svg>
